<svg width="119" height="119" viewBox="0 0 119 119" fill="none" xmlns="http://www.w3.org/2000/svg">
<g clip-path="url(#clip0)">
<path d="M96.0579 59.0877C96.0579 92.4213 67.9729 96.7581 67.9729 105.466C67.9729 114.156 59.0759 114.156 59.0759 114.156C59.0759 114.156 50.1789 114.156 50.179 105.466C50.179 96.758 22.094 92.4213 22.094 59.0877C22.094 25.7541 50.179 21.4174 50.179 12.7098C50.179 4.0193 59.0759 4.01918 59.0759 4.01918C59.0759 4.01918 67.973 4.01918 67.9729 12.7098C67.9731 21.4174 96.0579 25.7541 96.0579 59.0877Z" fill="#F3CB19"/>
<path d="M40.9415 32.0667C40.9236 32.0845 40.9057 32.1024 40.8868 32.1193C40.3765 32.5779 39.8721 33.0537 39.3737 33.5468C38.8772 34.0432 38.3889 34.5436 37.9103 35.0718C37.5657 35.4572 37.0412 35.6286 36.5357 35.5209C36.0301 35.4132 35.6209 35.0428 35.4634 34.5504C35.3058 34.058 35.4242 33.5191 35.7734 33.1378C36.2888 32.5707 36.816 32.0316 37.3482 31.4973C37.8784 30.973 38.4147 30.4686 38.9569 29.9782C39.537 29.4555 40.4279 29.4901 40.9656 30.056C41.5035 30.6223 41.4928 31.5138 40.9415 32.0667Z" fill="white"/>
<path d="M30.6319 72.5034C30.4658 72.6699 30.2611 72.7927 30.036 72.8604C29.6708 72.9728 29.2758 72.9353 28.9385 72.7561C28.6011 72.577 28.3487 72.2709 28.2373 71.9054C27.9508 70.9703 27.6972 70.0083 27.4842 69.0453C27.2624 68.0476 27.0743 67.0099 26.9251 65.9654C26.7729 64.9059 26.6556 63.7897 26.577 62.6487C26.4975 61.4967 26.4575 60.297 26.4575 59.0853C26.4575 57.8736 26.4973 56.6738 26.577 55.5219C26.6556 54.3809 26.7729 53.2647 26.9251 52.2031C27.0743 51.1605 27.2623 50.1229 27.4853 49.1222C27.6973 48.1622 27.9509 47.2002 28.2373 46.265C28.5149 45.3588 28.8283 44.4684 29.1675 43.6177C29.5017 42.7742 29.8668 41.9514 30.2528 41.1695C30.6298 40.4046 31.0427 39.6434 31.4784 38.9113C31.7411 38.4688 32.2199 38.2001 32.7345 38.2062C33.2489 38.2124 33.7211 38.4926 33.973 38.9414C34.225 39.3902 34.2183 39.939 33.9557 40.3816C33.5588 41.0511 33.1817 41.7446 32.8385 42.4439C32.4853 43.1572 32.1511 43.9112 31.8437 44.6823C31.5343 45.4632 31.2467 46.28 30.9912 47.1107C30.7275 47.9712 30.4948 48.8585 30.2979 49.7459C30.091 50.6771 29.917 51.639 29.7786 52.6111C29.6354 53.6038 29.525 54.6495 29.4524 55.7189C29.3768 56.8072 29.3389 57.9393 29.3389 59.0854C29.3391 60.2315 29.3767 61.3635 29.4524 62.452C29.525 63.5214 29.6354 64.567 29.7787 65.5578C29.917 66.5318 30.0911 67.4937 30.297 68.4219C30.495 69.3124 30.7278 70.1997 30.9914 71.0622C31.1481 71.5718 31.0098 72.1266 30.6319 72.5034Z" fill="white"/>
<path d="M77.4448 87.6372C77.3104 87.7684 77.1515 87.872 76.9773 87.9419C76.8024 88.0132 76.6167 88.0544 76.4282 88.064C75.8459 88.0639 75.3223 87.7093 75.1059 87.1687C75.0273 86.9963 74.9857 86.8092 74.9839 86.6196C75.0166 85.8363 75.644 85.2088 76.4272 85.1763C76.6167 85.1781 76.8038 85.2196 76.9763 85.2983C77.3312 85.436 77.6118 85.7167 77.7496 86.0717C77.821 86.2465 77.8624 86.432 77.8717 86.6208C77.8711 87.003 77.7174 87.369 77.4448 87.6372Z" fill="white"/>
<path d="M80.3474 81.8405C80.2101 81.9752 80.0484 82.0823 79.8708 82.1563C79.6974 82.2306 79.5094 82.2653 79.3209 82.2576C78.9432 82.2585 78.5806 82.1083 78.3143 81.8406C78.1771 81.7069 78.0669 81.5483 77.9897 81.373C77.9208 81.1982 77.8863 81.0118 77.8874 80.8239C77.8857 80.6361 77.9205 80.4495 77.9897 80.2748C78.1394 79.9227 78.4198 79.6423 78.7719 79.4926C78.9466 79.4234 79.133 79.3887 79.321 79.3903C79.5092 79.3833 79.6968 79.4182 79.87 79.4926C80.0482 79.5655 80.2103 79.6724 80.3476 79.8073C80.6157 80.0768 80.7627 80.4438 80.7547 80.8238C80.7653 81.2045 80.6179 81.5725 80.3474 81.8405Z" fill="white"/>
<path d="M74.5417 83.2868C74.2739 83.5598 73.9075 83.7137 73.5252 83.7137C73.1429 83.7137 72.7765 83.5598 72.5087 83.2868C72.1724 82.947 72.0269 82.4623 72.1208 81.9935C72.2146 81.5247 72.5352 81.1332 72.9762 80.949C73.1522 80.8713 73.3429 80.8331 73.5352 80.8368C73.7205 80.8385 73.9037 80.8766 74.0744 80.949C74.2487 81.019 74.4075 81.1225 74.5419 81.2536C74.679 81.3873 74.7894 81.546 74.8665 81.7213C75.0062 82.0779 75.0026 82.4749 74.8566 82.8291C74.783 83.0012 74.676 83.1568 74.5417 83.2868Z" fill="white"/>
<path d="M71.6477 89.0938C71.5137 89.2255 71.3548 89.3292 71.1802 89.3985C71.0058 89.4673 70.8196 89.5018 70.6322 89.4997C70.2478 89.5045 69.8774 89.3546 69.6046 89.0836C69.4746 88.9483 69.3712 88.7897 69.2999 88.6161C69.2253 88.4427 69.1908 88.2548 69.1986 88.0661C69.1984 87.5876 69.439 87.141 69.839 86.8779C69.9131 86.8279 69.9912 86.7837 70.0723 86.7459C70.1745 86.7051 70.2559 86.6854 70.3473 86.6535C70.4415 86.6416 70.5362 86.635 70.6312 86.6337C70.8194 86.6321 71.0059 86.6664 71.1812 86.7351C71.3527 86.8093 71.5078 86.9166 71.6378 87.0507C71.7767 87.1834 71.8877 87.3423 71.9644 87.5182C72.0326 87.693 72.0665 87.8795 72.0647 88.0672C72.0668 88.2547 72.0323 88.4409 71.9635 88.6152C71.8903 88.7938 71.7831 88.9563 71.6477 89.0938Z" fill="white"/>
<path d="M74.5518 77.4908C74.4151 77.6264 74.2527 77.7332 74.0742 77.8055C73.9011 77.8803 73.7137 77.9153 73.5251 77.9078C73.147 77.9108 72.7838 77.7604 72.5186 77.4908C72.3814 77.3571 72.2712 77.1986 72.194 77.0232C72.0059 76.5797 72.0545 76.0714 72.323 75.6716C72.5916 75.2718 73.0437 75.0346 73.5253 75.0408C73.9076 75.0336 74.2764 75.1823 74.5468 75.4527C74.8172 75.7231 74.966 76.0918 74.9587 76.4742C74.9662 76.6625 74.9312 76.8502 74.8565 77.0233C74.7863 77.1975 74.6829 77.3564 74.5518 77.4908Z" fill="white"/>
<path d="M80.3376 76.0444C80.0733 76.3146 79.7101 76.4647 79.3321 76.4604C78.8998 76.4654 78.4886 76.2742 78.214 75.9403C77.9392 75.6066 77.8306 75.1661 77.9186 74.7431C77.9299 74.6509 77.9575 74.5616 78 74.479C78.0297 74.3874 78.0746 74.3014 78.133 74.2249C78.2325 74.0639 78.3682 73.9282 78.5291 73.8287C78.6069 73.7722 78.6925 73.7273 78.7833 73.6957C78.8671 73.6566 78.956 73.6292 79.0473 73.6143L79.3213 73.5845C79.5129 73.5891 79.7023 73.6268 79.8812 73.6957C80.3249 73.881 80.6465 74.2759 80.7383 74.7479C80.83 75.2199 80.6795 75.7065 80.3376 76.0444Z" fill="white"/>
</g>
<defs>
<clipPath id="clip0">
<rect width="83.5582" height="83.5582" fill="white" transform="translate(0 59.0846) rotate(-45)"/>
</clipPath>
</defs>
</svg>
