<svg width="44" height="48" viewBox="0 0 44 48" fill="none" xmlns="http://www.w3.org/2000/svg">
<path d="M43.0345 34.2986V33.3843V13.7014C43.0345 12.6392 42.4688 11.6576 41.5504 11.1265L23.0013 0.398361C22.083 -0.132787 20.9516 -0.132787 20.0333 0.398361L1.48407 11.1265C0.565754 11.6576 0 12.6391 0 13.7014V33.3844V34.2987C0 35.3609 0.565659 36.3425 1.48407 36.8736L20.0333 47.6016C20.9516 48.1328 22.083 48.1328 23.0013 47.6016L41.5505 36.8736C42.4687 36.3425 43.0345 35.3609 43.0345 34.2986Z" fill="#B8B8FF"/>
<path d="M39.8582 32.7218V13.9391C39.8582 13.7583 39.7607 13.5912 39.6025 13.5008L21.8244 3.34466C21.6662 3.25425 21.4712 3.25425 21.313 3.34466L3.53471 13.5008C3.37645 13.5912 3.27893 13.7583 3.27893 13.9391V32.7218L4.34803 34.2719L21.5686 44.1096L38.7892 34.2719L39.8582 32.7218Z" fill="#303035"/>
</svg>
