<svg width="44" height="48" viewBox="0 0 44 48" fill="none" xmlns="http://www.w3.org/2000/svg">
<path d="M43.0345 34.2986V33.3843V13.7014C43.0345 12.6392 42.4688 11.6576 41.5504 11.1265L23.0013 0.398361C22.083 -0.132787 20.9516 -0.132787 20.0333 0.398361L1.48407 11.1265C0.565754 11.6576 0 12.6391 0 13.7014V33.3844V34.2987C0 35.3609 0.565659 36.3425 1.48407 36.8736L20.0333 47.6016C20.9516 48.1328 22.083 48.1328 23.0013 47.6016L41.5505 36.8736C42.4687 36.3425 43.0345 35.3609 43.0345 34.2986Z" fill="#44454B"/>
<path d="M39.8573 32.7222V13.9396C39.8573 13.7588 39.7598 13.5917 39.6015 13.5013L21.8235 3.34515C21.6652 3.25474 21.4703 3.25474 21.312 3.34515L3.53379 13.5013C3.37553 13.5917 3.27802 13.7588 3.27802 13.9396V32.7222L4.34711 34.2724L21.5677 44.1101L38.7883 34.2724L39.8573 32.7222Z" fill="#303035"/>
</svg>
